<svg width="1150" height="488" viewBox="0 0 1150 488" fill="none" xmlns="http://www.w3.org/2000/svg">
<path fill-rule="evenodd" clip-rule="evenodd" d="M0 0H1150V488H0V0ZM691 270C691 272.761 688.761 275 686 275C683.239 275 681 272.761 681 270C681 267.239 683.239 265 686 265C688.761 265 691 267.239 691 270ZM686 255C688.761 255 691 252.761 691 250C691 247.239 688.761 245 686 245C683.239 245 681 247.239 681 250C681 252.761 683.239 255 686 255ZM691 230C691 232.761 688.761 235 686 235C683.239 235 681 232.761 681 230C681 227.239 683.239 225 686 225C688.761 225 691 227.239 691 230ZM706 295C708.761 295 711 292.761 711 290C711 287.239 708.761 285 706 285C703.239 285 701 287.239 701 290C701 292.761 703.239 295 706 295ZM711 270C711 272.761 708.761 275 706 275C703.239 275 701 272.761 701 270C701 267.239 703.239 265 706 265C708.761 265 711 267.239 711 270ZM706 255C708.761 255 711 252.761 711 250C711 247.239 708.761 245 706 245C703.239 245 701 247.239 701 250C701 252.761 703.239 255 706 255ZM711 230C711 232.761 708.761 235 706 235C703.239 235 701 232.761 701 230C701 227.239 703.239 225 706 225C708.761 225 711 227.239 711 230ZM706 215C708.761 215 711 212.761 711 210C711 207.239 708.761 205 706 205C703.239 205 701 207.239 701 210C701 212.761 703.239 215 706 215ZM731 310C731 312.761 728.761 315 726 315C723.239 315 721 312.761 721 310C721 307.239 723.239 305 726 305C728.761 305 731 307.239 731 310ZM726 295C728.761 295 731 292.761 731 290C731 287.239 728.761 285 726 285C723.239 285 721 287.239 721 290C721 292.761 723.239 295 726 295ZM731 270C731 272.761 728.761 275 726 275C723.239 275 721 272.761 721 270C721 267.239 723.239 265 726 265C728.761 265 731 267.239 731 270ZM726 255C728.761 255 731 252.761 731 250C731 247.239 728.761 245 726 245C723.239 245 721 247.239 721 250C721 252.761 723.239 255 726 255ZM731 230C731 232.761 728.761 235 726 235C723.239 235 721 232.761 721 230C721 227.239 723.239 225 726 225C728.761 225 731 227.239 731 230ZM726 215C728.761 215 731 212.761 731 210C731 207.239 728.761 205 726 205C723.239 205 721 207.239 721 210C721 212.761 723.239 215 726 215ZM751 310C751 312.761 748.761 315 746 315C743.239 315 741 312.761 741 310C741 307.239 743.239 305 746 305C748.761 305 751 307.239 751 310ZM746 295C748.761 295 751 292.761 751 290C751 287.239 748.761 285 746 285C743.239 285 741 287.239 741 290C741 292.761 743.239 295 746 295ZM751 270C751 272.761 748.761 275 746 275C743.239 275 741 272.761 741 270C741 267.239 743.239 265 746 265C748.761 265 751 267.239 751 270ZM746 255C748.761 255 751 252.761 751 250C751 247.239 748.761 245 746 245C743.239 245 741 247.239 741 250C741 252.761 743.239 255 746 255ZM751 230C751 232.761 748.761 235 746 235C743.239 235 741 232.761 741 230C741 227.239 743.239 225 746 225C748.761 225 751 227.239 751 230ZM746 215C748.761 215 751 212.761 751 210C751 207.239 748.761 205 746 205C743.239 205 741 207.239 741 210C741 212.761 743.239 215 746 215ZM771 330C771 332.761 768.761 335 766 335C763.239 335 761 332.761 761 330C761 327.239 763.239 325 766 325C768.761 325 771 327.239 771 330ZM766 315C768.761 315 771 312.761 771 310C771 307.239 768.761 305 766 305C763.239 305 761 307.239 761 310C761 312.761 763.239 315 766 315ZM771 290C771 292.761 768.761 295 766 295C763.239 295 761 292.761 761 290C761 287.239 763.239 285 766 285C768.761 285 771 287.239 771 290ZM766 275C768.761 275 771 272.761 771 270C771 267.239 768.761 265 766 265C763.239 265 761 267.239 761 270C761 272.761 763.239 275 766 275ZM771 250C771 252.761 768.761 255 766 255C763.239 255 761 252.761 761 250C761 247.239 763.239 245 766 245C768.761 245 771 247.239 771 250ZM766 235C768.761 235 771 232.761 771 230C771 227.239 768.761 225 766 225C763.239 225 761 227.239 761 230C761 232.761 763.239 235 766 235ZM771 210C771 212.761 768.761 215 766 215C763.239 215 761 212.761 761 210C761 207.239 763.239 205 766 205C768.761 205 771 207.239 771 210ZM766 195C768.761 195 771 192.761 771 190C771 187.239 768.761 185 766 185C763.239 185 761 187.239 761 190C761 192.761 763.239 195 766 195ZM791 350C791 352.761 788.761 355 786 355C783.239 355 781 352.761 781 350C781 347.239 783.239 345 786 345C788.761 345 791 347.239 791 350ZM786 335C788.761 335 791 332.761 791 330C791 327.239 788.761 325 786 325C783.239 325 781 327.239 781 330C781 332.761 783.239 335 786 335ZM791 310C791 312.761 788.761 315 786 315C783.239 315 781 312.761 781 310C781 307.239 783.239 305 786 305C788.761 305 791 307.239 791 310ZM786 295C788.761 295 791 292.761 791 290C791 287.239 788.761 285 786 285C783.239 285 781 287.239 781 290C781 292.761 783.239 295 786 295ZM791 270C791 272.761 788.761 275 786 275C783.239 275 781 272.761 781 270C781 267.239 783.239 265 786 265C788.761 265 791 267.239 791 270ZM786 255C788.761 255 791 252.761 791 250C791 247.239 788.761 245 786 245C783.239 245 781 247.239 781 250C781 252.761 783.239 255 786 255ZM791 230C791 232.761 788.761 235 786 235C783.239 235 781 232.761 781 230C781 227.239 783.239 225 786 225C788.761 225 791 227.239 791 230ZM786 215C788.761 215 791 212.761 791 210C791 207.239 788.761 205 786 205C783.239 205 781 207.239 781 210C781 212.761 783.239 215 786 215ZM791 190C791 192.761 788.761 195 786 195C783.239 195 781 192.761 781 190C781 187.239 783.239 185 786 185C788.761 185 791 187.239 791 190ZM806 355C808.761 355 811 352.761 811 350C811 347.239 808.761 345 806 345C803.239 345 801 347.239 801 350C801 352.761 803.239 355 806 355ZM811 330C811 332.761 808.761 335 806 335C803.239 335 801 332.761 801 330C801 327.239 803.239 325 806 325C808.761 325 811 327.239 811 330ZM806 315C808.761 315 811 312.761 811 310C811 307.239 808.761 305 806 305C803.239 305 801 307.239 801 310C801 312.761 803.239 315 806 315ZM811 290C811 292.761 808.761 295 806 295C803.239 295 801 292.761 801 290C801 287.239 803.239 285 806 285C808.761 285 811 287.239 811 290ZM806 275C808.761 275 811 272.761 811 270C811 267.239 808.761 265 806 265C803.239 265 801 267.239 801 270C801 272.761 803.239 275 806 275ZM811 250C811 252.761 808.761 255 806 255C803.239 255 801 252.761 801 250C801 247.239 803.239 245 806 245C808.761 245 811 247.239 811 250ZM806 235C808.761 235 811 232.761 811 230C811 227.239 808.761 225 806 225C803.239 225 801 227.239 801 230C801 232.761 803.239 235 806 235ZM811 210C811 212.761 808.761 215 806 215C803.239 215 801 212.761 801 210C801 207.239 803.239 205 806 205C808.761 205 811 207.239 811 210ZM806 195C808.761 195 811 192.761 811 190C811 187.239 808.761 185 806 185C803.239 185 801 187.239 801 190C801 192.761 803.239 195 806 195ZM811 170C811 172.761 808.761 175 806 175C803.239 175 801 172.761 801 170C801 167.239 803.239 165 806 165C808.761 165 811 167.239 811 170ZM826 315C828.761 315 831 312.761 831 310C831 307.239 828.761 305 826 305C823.239 305 821 307.239 821 310C821 312.761 823.239 315 826 315ZM831 290C831 292.761 828.761 295 826 295C823.239 295 821 292.761 821 290C821 287.239 823.239 285 826 285C828.761 285 831 287.239 831 290ZM826 275C828.761 275 831 272.761 831 270C831 267.239 828.761 265 826 265C823.239 265 821 267.239 821 270C821 272.761 823.239 275 826 275ZM831 250C831 252.761 828.761 255 826 255C823.239 255 821 252.761 821 250C821 247.239 823.239 245 826 245C828.761 245 831 247.239 831 250ZM826 235C828.761 235 831 232.761 831 230C831 227.239 828.761 225 826 225C823.239 225 821 227.239 821 230C821 232.761 823.239 235 826 235ZM831 210C831 212.761 828.761 215 826 215C823.239 215 821 212.761 821 210C821 207.239 823.239 205 826 205C828.761 205 831 207.239 831 210ZM826 195C828.761 195 831 192.761 831 190C831 187.239 828.761 185 826 185C823.239 185 821 187.239 821 190C821 192.761 823.239 195 826 195ZM831 170C831 172.761 828.761 175 826 175C823.239 175 821 172.761 821 170C821 167.239 823.239 165 826 165C828.761 165 831 167.239 831 170ZM846 295C848.761 295 851 292.761 851 290C851 287.239 848.761 285 846 285C843.239 285 841 287.239 841 290C841 292.761 843.239 295 846 295ZM851 270C851 272.761 848.761 275 846 275C843.239 275 841 272.761 841 270C841 267.239 843.239 265 846 265C848.761 265 851 267.239 851 270ZM846 255C848.761 255 851 252.761 851 250C851 247.239 848.761 245 846 245C843.239 245 841 247.239 841 250C841 252.761 843.239 255 846 255ZM851 230C851 232.761 848.761 235 846 235C843.239 235 841 232.761 841 230C841 227.239 843.239 225 846 225C848.761 225 851 227.239 851 230ZM846 215C848.761 215 851 212.761 851 210C851 207.239 848.761 205 846 205C843.239 205 841 207.239 841 210C841 212.761 843.239 215 846 215ZM851 190C851 192.761 848.761 195 846 195C843.239 195 841 192.761 841 190C841 187.239 843.239 185 846 185C848.761 185 851 187.239 851 190ZM846 175C848.761 175 851 172.761 851 170C851 167.239 848.761 165 846 165C843.239 165 841 167.239 841 170C841 172.761 843.239 175 846 175ZM851 150C851 152.761 848.761 155 846 155C843.239 155 841 152.761 841 150C841 147.239 843.239 145 846 145C848.761 145 851 147.239 851 150ZM866 295C868.761 295 871 292.761 871 290C871 287.239 868.761 285 866 285C863.239 285 861 287.239 861 290C861 292.761 863.239 295 866 295ZM871 270C871 272.761 868.761 275 866 275C863.239 275 861 272.761 861 270C861 267.239 863.239 265 866 265C868.761 265 871 267.239 871 270ZM866 255C868.761 255 871 252.761 871 250C871 247.239 868.761 245 866 245C863.239 245 861 247.239 861 250C861 252.761 863.239 255 866 255ZM871 230C871 232.761 868.761 235 866 235C863.239 235 861 232.761 861 230C861 227.239 863.239 225 866 225C868.761 225 871 227.239 871 230ZM866 215C868.761 215 871 212.761 871 210C871 207.239 868.761 205 866 205C863.239 205 861 207.239 861 210C861 212.761 863.239 215 866 215ZM871 190C871 192.761 868.761 195 866 195C863.239 195 861 192.761 861 190C861 187.239 863.239 185 866 185C868.761 185 871 187.239 871 190ZM866 175C868.761 175 871 172.761 871 170C871 167.239 868.761 165 866 165C863.239 165 861 167.239 861 170C861 172.761 863.239 175 866 175ZM871 150C871 152.761 868.761 155 866 155C863.239 155 861 152.761 861 150C861 147.239 863.239 145 866 145C868.761 145 871 147.239 871 150ZM886 275C888.761 275 891 272.761 891 270C891 267.239 888.761 265 886 265C883.239 265 881 267.239 881 270C881 272.761 883.239 275 886 275ZM911 270C911 272.761 908.761 275 906 275C903.239 275 901 272.761 901 270C901 267.239 903.239 265 906 265C908.761 265 911 267.239 911 270ZM926 275C928.761 275 931 272.761 931 270C931 267.239 928.761 265 926 265C923.239 265 921 267.239 921 270C921 272.761 923.239 275 926 275ZM951 270C951 272.761 948.761 275 946 275C943.239 275 941 272.761 941 270C941 267.239 943.239 265 946 265C948.761 265 951 267.239 951 270ZM966 275C968.761 275 971 272.761 971 270C971 267.239 968.761 265 966 265C963.239 265 961 267.239 961 270C961 272.761 963.239 275 966 275ZM991 270C991 272.761 988.761 275 986 275C983.239 275 981 272.761 981 270C981 267.239 983.239 265 986 265C988.761 265 991 267.239 991 270ZM886 255C888.761 255 891 252.761 891 250C891 247.239 888.761 245 886 245C883.239 245 881 247.239 881 250C881 252.761 883.239 255 886 255ZM911 250C911 252.761 908.761 255 906 255C903.239 255 901 252.761 901 250C901 247.239 903.239 245 906 245C908.761 245 911 247.239 911 250ZM926 255C928.761 255 931 252.761 931 250C931 247.239 928.761 245 926 245C923.239 245 921 247.239 921 250C921 252.761 923.239 255 926 255ZM951 250C951 252.761 948.761 255 946 255C943.239 255 941 252.761 941 250C941 247.239 943.239 245 946 245C948.761 245 951 247.239 951 250ZM966 255C968.761 255 971 252.761 971 250C971 247.239 968.761 245 966 245C963.239 245 961 247.239 961 250C961 252.761 963.239 255 966 255ZM891 230C891 232.761 888.761 235 886 235C883.239 235 881 232.761 881 230C881 227.239 883.239 225 886 225C888.761 225 891 227.239 891 230ZM906 235C908.761 235 911 232.761 911 230C911 227.239 908.761 225 906 225C903.239 225 901 227.239 901 230C901 232.761 903.239 235 906 235ZM931 230C931 232.761 928.761 235 926 235C923.239 235 921 232.761 921 230C921 227.239 923.239 225 926 225C928.761 225 931 227.239 931 230ZM946 235C948.761 235 951 232.761 951 230C951 227.239 948.761 225 946 225C943.239 225 941 227.239 941 230C941 232.761 943.239 235 946 235ZM891 210C891 212.761 888.761 215 886 215C883.239 215 881 212.761 881 210C881 207.239 883.239 205 886 205C888.761 205 891 207.239 891 210ZM906 215C908.761 215 911 212.761 911 210C911 207.239 908.761 205 906 205C903.239 205 901 207.239 901 210C901 212.761 903.239 215 906 215ZM931 210C931 212.761 928.761 215 926 215C923.239 215 921 212.761 921 210C921 207.239 923.239 205 926 205C928.761 205 931 207.239 931 210ZM886 195C888.761 195 891 192.761 891 190C891 187.239 888.761 185 886 185C883.239 185 881 187.239 881 190C881 192.761 883.239 195 886 195ZM911 190C911 192.761 908.761 195 906 195C903.239 195 901 192.761 901 190C901 187.239 903.239 185 906 185C908.761 185 911 187.239 911 190ZM926 195C928.761 195 931 192.761 931 190C931 187.239 928.761 185 926 185C923.239 185 921 187.239 921 190C921 192.761 923.239 195 926 195ZM891 170C891 172.761 888.761 175 886 175C883.239 175 881 172.761 881 170C881 167.239 883.239 165 886 165C888.761 165 891 167.239 891 170ZM906 175C908.761 175 911 172.761 911 170C911 167.239 908.761 165 906 165C903.239 165 901 167.239 901 170C901 172.761 903.239 175 906 175ZM431 320C431 322.761 428.761 325 426 325C423.239 325 421 322.761 421 320C421 317.239 423.239 315 426 315C428.761 315 431 317.239 431 320ZM406 325C408.761 325 411 322.761 411 320C411 317.239 408.761 315 406 315C403.239 315 401 317.239 401 320C401 322.761 403.239 325 406 325ZM391 320C391 322.761 388.761 325 386 325C383.239 325 381 322.761 381 320C381 317.239 383.239 315 386 315C388.761 315 391 317.239 391 320ZM486 305C488.761 305 491 302.761 491 300C491 297.239 488.761 295 486 295C483.239 295 481 297.239 481 300C481 302.761 483.239 305 486 305ZM471 300C471 302.761 468.761 305 466 305C463.239 305 461 302.761 461 300C461 297.239 463.239 295 466 295C468.761 295 471 297.239 471 300ZM446 305C448.761 305 451 302.761 451 300C451 297.239 448.761 295 446 295C443.239 295 441 297.239 441 300C441 302.761 443.239 305 446 305ZM431 300C431 302.761 428.761 305 426 305C423.239 305 421 302.761 421 300C421 297.239 423.239 295 426 295C428.761 295 431 297.239 431 300ZM406 305C408.761 305 411 302.761 411 300C411 297.239 408.761 295 406 295C403.239 295 401 297.239 401 300C401 302.761 403.239 305 406 305ZM391 300C391 302.761 388.761 305 386 305C383.239 305 381 302.761 381 300C381 297.239 383.239 295 386 295C388.761 295 391 297.239 391 300ZM366 305C368.761 305 371 302.761 371 300C371 297.239 368.761 295 366 295C363.239 295 361 297.239 361 300C361 302.761 363.239 305 366 305ZM351 300C351 302.761 348.761 305 346 305C343.239 305 341 302.761 341 300C341 297.239 343.239 295 346 295C348.761 295 351 297.239 351 300ZM326 305C328.761 305 331 302.761 331 300C331 297.239 328.761 295 326 295C323.239 295 321 297.239 321 300C321 302.761 323.239 305 326 305ZM311 300C311 302.761 308.761 305 306 305C303.239 305 301 302.761 301 300C301 297.239 303.239 295 306 295C308.761 295 311 297.239 311 300ZM286 305C288.761 305 291 302.761 291 300C291 297.239 288.761 295 286 295C283.239 295 281 297.239 281 300C281 302.761 283.239 305 286 305ZM271 300C271 302.761 268.761 305 266 305C263.239 305 261 302.761 261 300C261 297.239 263.239 295 266 295C268.761 295 271 297.239 271 300ZM246 305C248.761 305 251 302.761 251 300C251 297.239 248.761 295 246 295C243.239 295 241 297.239 241 300C241 302.761 243.239 305 246 305ZM531 280C531 282.761 528.761 285 526 285C523.239 285 521 282.761 521 280C521 277.239 523.239 275 526 275C528.761 275 531 277.239 531 280ZM506 285C508.761 285 511 282.761 511 280C511 277.239 508.761 275 506 275C503.239 275 501 277.239 501 280C501 282.761 503.239 285 506 285ZM491 280C491 282.761 488.761 285 486 285C483.239 285 481 282.761 481 280C481 277.239 483.239 275 486 275C488.761 275 491 277.239 491 280ZM466 285C468.761 285 471 282.761 471 280C471 277.239 468.761 275 466 275C463.239 275 461 277.239 461 280C461 282.761 463.239 285 466 285ZM451 280C451 282.761 448.761 285 446 285C443.239 285 441 282.761 441 280C441 277.239 443.239 275 446 275C448.761 275 451 277.239 451 280ZM426 285C428.761 285 431 282.761 431 280C431 277.239 428.761 275 426 275C423.239 275 421 277.239 421 280C421 282.761 423.239 285 426 285ZM411 280C411 282.761 408.761 285 406 285C403.239 285 401 282.761 401 280C401 277.239 403.239 275 406 275C408.761 275 411 277.239 411 280ZM386 285C388.761 285 391 282.761 391 280C391 277.239 388.761 275 386 275C383.239 275 381 277.239 381 280C381 282.761 383.239 285 386 285ZM371 280C371 282.761 368.761 285 366 285C363.239 285 361 282.761 361 280C361 277.239 363.239 275 366 275C368.761 275 371 277.239 371 280ZM346 285C348.761 285 351 282.761 351 280C351 277.239 348.761 275 346 275C343.239 275 341 277.239 341 280C341 282.761 343.239 285 346 285ZM331 280C331 282.761 328.761 285 326 285C323.239 285 321 282.761 321 280C321 277.239 323.239 275 326 275C328.761 275 331 277.239 331 280ZM306 285C308.761 285 311 282.761 311 280C311 277.239 308.761 275 306 275C303.239 275 301 277.239 301 280C301 282.761 303.239 285 306 285ZM291 280C291 282.761 288.761 285 286 285C283.239 285 281 282.761 281 280C281 277.239 283.239 275 286 275C288.761 275 291 277.239 291 280ZM266 285C268.761 285 271 282.761 271 280C271 277.239 268.761 275 266 275C263.239 275 261 277.239 261 280C261 282.761 263.239 285 266 285ZM251 280C251 282.761 248.761 285 246 285C243.239 285 241 282.761 241 280C241 277.239 243.239 275 246 275C248.761 275 251 277.239 251 280ZM226 285C228.761 285 231 282.761 231 280C231 277.239 228.761 275 226 275C223.239 275 221 277.239 221 280C221 282.761 223.239 285 226 285ZM211 280C211 282.761 208.761 285 206 285C203.239 285 201 282.761 201 280C201 277.239 203.239 275 206 275C208.761 275 211 277.239 211 280ZM186 285C188.761 285 191 282.761 191 280C191 277.239 188.761 275 186 275C183.239 275 181 277.239 181 280C181 282.761 183.239 285 186 285ZM631 260C631 262.761 628.761 265 626 265C623.239 265 621 262.761 621 260C621 257.239 623.239 255 626 255C628.761 255 631 257.239 631 260ZM606 265C608.761 265 611 262.761 611 260C611 257.239 608.761 255 606 255C603.239 255 601 257.239 601 260C601 262.761 603.239 265 606 265ZM591 260C591 262.761 588.761 265 586 265C583.239 265 581 262.761 581 260C581 257.239 583.239 255 586 255C588.761 255 591 257.239 591 260ZM566 265C568.761 265 571 262.761 571 260C571 257.239 568.761 255 566 255C563.239 255 561 257.239 561 260C561 262.761 563.239 265 566 265ZM551 260C551 262.761 548.761 265 546 265C543.239 265 541 262.761 541 260C541 257.239 543.239 255 546 255C548.761 255 551 257.239 551 260ZM526 265C528.761 265 531 262.761 531 260C531 257.239 528.761 255 526 255C523.239 255 521 257.239 521 260C521 262.761 523.239 265 526 265ZM511 260C511 262.761 508.761 265 506 265C503.239 265 501 262.761 501 260C501 257.239 503.239 255 506 255C508.761 255 511 257.239 511 260ZM486 265C488.761 265 491 262.761 491 260C491 257.239 488.761 255 486 255C483.239 255 481 257.239 481 260C481 262.761 483.239 265 486 265ZM471 260C471 262.761 468.761 265 466 265C463.239 265 461 262.761 461 260C461 257.239 463.239 255 466 255C468.761 255 471 257.239 471 260ZM446 265C448.761 265 451 262.761 451 260C451 257.239 448.761 255 446 255C443.239 255 441 257.239 441 260C441 262.761 443.239 265 446 265ZM431 260C431 262.761 428.761 265 426 265C423.239 265 421 262.761 421 260C421 257.239 423.239 255 426 255C428.761 255 431 257.239 431 260ZM406 265C408.761 265 411 262.761 411 260C411 257.239 408.761 255 406 255C403.239 255 401 257.239 401 260C401 262.761 403.239 265 406 265ZM391 260C391 262.761 388.761 265 386 265C383.239 265 381 262.761 381 260C381 257.239 383.239 255 386 255C388.761 255 391 257.239 391 260ZM366 265C368.761 265 371 262.761 371 260C371 257.239 368.761 255 366 255C363.239 255 361 257.239 361 260C361 262.761 363.239 265 366 265ZM351 260C351 262.761 348.761 265 346 265C343.239 265 341 262.761 341 260C341 257.239 343.239 255 346 255C348.761 255 351 257.239 351 260ZM326 265C328.761 265 331 262.761 331 260C331 257.239 328.761 255 326 255C323.239 255 321 257.239 321 260C321 262.761 323.239 265 326 265ZM311 260C311 262.761 308.761 265 306 265C303.239 265 301 262.761 301 260C301 257.239 303.239 255 306 255C308.761 255 311 257.239 311 260ZM286 265C288.761 265 291 262.761 291 260C291 257.239 288.761 255 286 255C283.239 255 281 257.239 281 260C281 262.761 283.239 265 286 265ZM271 260C271 262.761 268.761 265 266 265C263.239 265 261 262.761 261 260C261 257.239 263.239 255 266 255C268.761 255 271 257.239 271 260ZM246 265C248.761 265 251 262.761 251 260C251 257.239 248.761 255 246 255C243.239 255 241 257.239 241 260C241 262.761 243.239 265 246 265ZM231 260C231 262.761 228.761 265 226 265C223.239 265 221 262.761 221 260C221 257.239 223.239 255 226 255C228.761 255 231 257.239 231 260ZM206 265C208.761 265 211 262.761 211 260C211 257.239 208.761 255 206 255C203.239 255 201 257.239 201 260C201 262.761 203.239 265 206 265ZM191 260C191 262.761 188.761 265 186 265C183.239 265 181 262.761 181 260C181 257.239 183.239 255 186 255C188.761 255 191 257.239 191 260ZM646 245C648.761 245 651 242.761 651 240C651 237.239 648.761 235 646 235C643.239 235 641 237.239 641 240C641 242.761 643.239 245 646 245ZM631 240C631 242.761 628.761 245 626 245C623.239 245 621 242.761 621 240C621 237.239 623.239 235 626 235C628.761 235 631 237.239 631 240ZM606 245C608.761 245 611 242.761 611 240C611 237.239 608.761 235 606 235C603.239 235 601 237.239 601 240C601 242.761 603.239 245 606 245ZM591 240C591 242.761 588.761 245 586 245C583.239 245 581 242.761 581 240C581 237.239 583.239 235 586 235C588.761 235 591 237.239 591 240ZM566 245C568.761 245 571 242.761 571 240C571 237.239 568.761 235 566 235C563.239 235 561 237.239 561 240C561 242.761 563.239 245 566 245ZM551 240C551 242.761 548.761 245 546 245C543.239 245 541 242.761 541 240C541 237.239 543.239 235 546 235C548.761 235 551 237.239 551 240ZM526 245C528.761 245 531 242.761 531 240C531 237.239 528.761 235 526 235C523.239 235 521 237.239 521 240C521 242.761 523.239 245 526 245ZM511 240C511 242.761 508.761 245 506 245C503.239 245 501 242.761 501 240C501 237.239 503.239 235 506 235C508.761 235 511 237.239 511 240ZM486 245C488.761 245 491 242.761 491 240C491 237.239 488.761 235 486 235C483.239 235 481 237.239 481 240C481 242.761 483.239 245 486 245ZM471 240C471 242.761 468.761 245 466 245C463.239 245 461 242.761 461 240C461 237.239 463.239 235 466 235C468.761 235 471 237.239 471 240ZM446 245C448.761 245 451 242.761 451 240C451 237.239 448.761 235 446 235C443.239 235 441 237.239 441 240C441 242.761 443.239 245 446 245ZM431 240C431 242.761 428.761 245 426 245C423.239 245 421 242.761 421 240C421 237.239 423.239 235 426 235C428.761 235 431 237.239 431 240ZM406 245C408.761 245 411 242.761 411 240C411 237.239 408.761 235 406 235C403.239 235 401 237.239 401 240C401 242.761 403.239 245 406 245ZM391 240C391 242.761 388.761 245 386 245C383.239 245 381 242.761 381 240C381 237.239 383.239 235 386 235C388.761 235 391 237.239 391 240ZM366 245C368.761 245 371 242.761 371 240C371 237.239 368.761 235 366 235C363.239 235 361 237.239 361 240C361 242.761 363.239 245 366 245ZM351 240C351 242.761 348.761 245 346 245C343.239 245 341 242.761 341 240C341 237.239 343.239 235 346 235C348.761 235 351 237.239 351 240ZM326 245C328.761 245 331 242.761 331 240C331 237.239 328.761 235 326 235C323.239 235 321 237.239 321 240C321 242.761 323.239 245 326 245ZM311 240C311 242.761 308.761 245 306 245C303.239 245 301 242.761 301 240C301 237.239 303.239 235 306 235C308.761 235 311 237.239 311 240ZM286 245C288.761 245 291 242.761 291 240C291 237.239 288.761 235 286 235C283.239 235 281 237.239 281 240C281 242.761 283.239 245 286 245ZM271 240C271 242.761 268.761 245 266 245C263.239 245 261 242.761 261 240C261 237.239 263.239 235 266 235C268.761 235 271 237.239 271 240ZM246 245C248.761 245 251 242.761 251 240C251 237.239 248.761 235 246 235C243.239 235 241 237.239 241 240C241 242.761 243.239 245 246 245ZM231 240C231 242.761 228.761 245 226 245C223.239 245 221 242.761 221 240C221 237.239 223.239 235 226 235C228.761 235 231 237.239 231 240ZM206 245C208.761 245 211 242.761 211 240C211 237.239 208.761 235 206 235C203.239 235 201 237.239 201 240C201 242.761 203.239 245 206 245ZM191 240C191 242.761 188.761 245 186 245C183.239 245 181 242.761 181 240C181 237.239 183.239 235 186 235C188.761 235 191 237.239 191 240ZM646 225C648.761 225 651 222.761 651 220C651 217.239 648.761 215 646 215C643.239 215 641 217.239 641 220C641 222.761 643.239 225 646 225ZM631 220C631 222.761 628.761 225 626 225C623.239 225 621 222.761 621 220C621 217.239 623.239 215 626 215C628.761 215 631 217.239 631 220ZM606 225C608.761 225 611 222.761 611 220C611 217.239 608.761 215 606 215C603.239 215 601 217.239 601 220C601 222.761 603.239 225 606 225ZM591 220C591 222.761 588.761 225 586 225C583.239 225 581 222.761 581 220C581 217.239 583.239 215 586 215C588.761 215 591 217.239 591 220ZM566 225C568.761 225 571 222.761 571 220C571 217.239 568.761 215 566 215C563.239 215 561 217.239 561 220C561 222.761 563.239 225 566 225ZM551 220C551 222.761 548.761 225 546 225C543.239 225 541 222.761 541 220C541 217.239 543.239 215 546 215C548.761 215 551 217.239 551 220ZM526 225C528.761 225 531 222.761 531 220C531 217.239 528.761 215 526 215C523.239 215 521 217.239 521 220C521 222.761 523.239 225 526 225ZM511 220C511 222.761 508.761 225 506 225C503.239 225 501 222.761 501 220C501 217.239 503.239 215 506 215C508.761 215 511 217.239 511 220ZM486 225C488.761 225 491 222.761 491 220C491 217.239 488.761 215 486 215C483.239 215 481 217.239 481 220C481 222.761 483.239 225 486 225ZM471 220C471 222.761 468.761 225 466 225C463.239 225 461 222.761 461 220C461 217.239 463.239 215 466 215C468.761 215 471 217.239 471 220ZM446 225C448.761 225 451 222.761 451 220C451 217.239 448.761 215 446 215C443.239 215 441 217.239 441 220C441 222.761 443.239 225 446 225ZM431 220C431 222.761 428.761 225 426 225C423.239 225 421 222.761 421 220C421 217.239 423.239 215 426 215C428.761 215 431 217.239 431 220ZM406 225C408.761 225 411 222.761 411 220C411 217.239 408.761 215 406 215C403.239 215 401 217.239 401 220C401 222.761 403.239 225 406 225ZM391 220C391 222.761 388.761 225 386 225C383.239 225 381 222.761 381 220C381 217.239 383.239 215 386 215C388.761 215 391 217.239 391 220ZM366 225C368.761 225 371 222.761 371 220C371 217.239 368.761 215 366 215C363.239 215 361 217.239 361 220C361 222.761 363.239 225 366 225ZM351 220C351 222.761 348.761 225 346 225C343.239 225 341 222.761 341 220C341 217.239 343.239 215 346 215C348.761 215 351 217.239 351 220ZM326 225C328.761 225 331 222.761 331 220C331 217.239 328.761 215 326 215C323.239 215 321 217.239 321 220C321 222.761 323.239 225 326 225ZM311 220C311 222.761 308.761 225 306 225C303.239 225 301 222.761 301 220C301 217.239 303.239 215 306 215C308.761 215 311 217.239 311 220ZM286 225C288.761 225 291 222.761 291 220C291 217.239 288.761 215 286 215C283.239 215 281 217.239 281 220C281 222.761 283.239 225 286 225ZM271 220C271 222.761 268.761 225 266 225C263.239 225 261 222.761 261 220C261 217.239 263.239 215 266 215C268.761 215 271 217.239 271 220ZM246 225C248.761 225 251 222.761 251 220C251 217.239 248.761 215 246 215C243.239 215 241 217.239 241 220C241 222.761 243.239 225 246 225ZM231 220C231 222.761 228.761 225 226 225C223.239 225 221 222.761 221 220C221 217.239 223.239 215 226 215C228.761 215 231 217.239 231 220ZM206 225C208.761 225 211 222.761 211 220C211 217.239 208.761 215 206 215C203.239 215 201 217.239 201 220C201 222.761 203.239 225 206 225ZM191 220C191 222.761 188.761 225 186 225C183.239 225 181 222.761 181 220C181 217.239 183.239 215 186 215C188.761 215 191 217.239 191 220ZM646 205C648.761 205 651 202.761 651 200C651 197.239 648.761 195 646 195C643.239 195 641 197.239 641 200C641 202.761 643.239 205 646 205ZM631 200C631 202.761 628.761 205 626 205C623.239 205 621 202.761 621 200C621 197.239 623.239 195 626 195C628.761 195 631 197.239 631 200ZM606 205C608.761 205 611 202.761 611 200C611 197.239 608.761 195 606 195C603.239 195 601 197.239 601 200C601 202.761 603.239 205 606 205ZM591 200C591 202.761 588.761 205 586 205C583.239 205 581 202.761 581 200C581 197.239 583.239 195 586 195C588.761 195 591 197.239 591 200ZM566 205C568.761 205 571 202.761 571 200C571 197.239 568.761 195 566 195C563.239 195 561 197.239 561 200C561 202.761 563.239 205 566 205ZM551 200C551 202.761 548.761 205 546 205C543.239 205 541 202.761 541 200C541 197.239 543.239 195 546 195C548.761 195 551 197.239 551 200ZM526 205C528.761 205 531 202.761 531 200C531 197.239 528.761 195 526 195C523.239 195 521 197.239 521 200C521 202.761 523.239 205 526 205ZM511 200C511 202.761 508.761 205 506 205C503.239 205 501 202.761 501 200C501 197.239 503.239 195 506 195C508.761 195 511 197.239 511 200ZM486 205C488.761 205 491 202.761 491 200C491 197.239 488.761 195 486 195C483.239 195 481 197.239 481 200C481 202.761 483.239 205 486 205ZM471 200C471 202.761 468.761 205 466 205C463.239 205 461 202.761 461 200C461 197.239 463.239 195 466 195C468.761 195 471 197.239 471 200ZM446 205C448.761 205 451 202.761 451 200C451 197.239 448.761 195 446 195C443.239 195 441 197.239 441 200C441 202.761 443.239 205 446 205ZM431 200C431 202.761 428.761 205 426 205C423.239 205 421 202.761 421 200C421 197.239 423.239 195 426 195C428.761 195 431 197.239 431 200ZM406 205C408.761 205 411 202.761 411 200C411 197.239 408.761 195 406 195C403.239 195 401 197.239 401 200C401 202.761 403.239 205 406 205ZM391 200C391 202.761 388.761 205 386 205C383.239 205 381 202.761 381 200C381 197.239 383.239 195 386 195C388.761 195 391 197.239 391 200ZM366 205C368.761 205 371 202.761 371 200C371 197.239 368.761 195 366 195C363.239 195 361 197.239 361 200C361 202.761 363.239 205 366 205ZM351 200C351 202.761 348.761 205 346 205C343.239 205 341 202.761 341 200C341 197.239 343.239 195 346 195C348.761 195 351 197.239 351 200ZM326 205C328.761 205 331 202.761 331 200C331 197.239 328.761 195 326 195C323.239 195 321 197.239 321 200C321 202.761 323.239 205 326 205ZM311 200C311 202.761 308.761 205 306 205C303.239 205 301 202.761 301 200C301 197.239 303.239 195 306 195C308.761 195 311 197.239 311 200ZM286 205C288.761 205 291 202.761 291 200C291 197.239 288.761 195 286 195C283.239 195 281 197.239 281 200C281 202.761 283.239 205 286 205ZM271 200C271 202.761 268.761 205 266 205C263.239 205 261 202.761 261 200C261 197.239 263.239 195 266 195C268.761 195 271 197.239 271 200ZM246 205C248.761 205 251 202.761 251 200C251 197.239 248.761 195 246 195C243.239 195 241 197.239 241 200C241 202.761 243.239 205 246 205ZM231 200C231 202.761 228.761 205 226 205C223.239 205 221 202.761 221 200C221 197.239 223.239 195 226 195C228.761 195 231 197.239 231 200ZM206 205C208.761 205 211 202.761 211 200C211 197.239 208.761 195 206 195C203.239 195 201 197.239 201 200C201 202.761 203.239 205 206 205ZM591 180C591 182.761 588.761 185 586 185C583.239 185 581 182.761 581 180C581 177.239 583.239 175 586 175C588.761 175 591 177.239 591 180ZM566 185C568.761 185 571 182.761 571 180C571 177.239 568.761 175 566 175C563.239 175 561 177.239 561 180C561 182.761 563.239 185 566 185ZM551 180C551 182.761 548.761 185 546 185C543.239 185 541 182.761 541 180C541 177.239 543.239 175 546 175C548.761 175 551 177.239 551 180ZM526 185C528.761 185 531 182.761 531 180C531 177.239 528.761 175 526 175C523.239 175 521 177.239 521 180C521 182.761 523.239 185 526 185ZM511 180C511 182.761 508.761 185 506 185C503.239 185 501 182.761 501 180C501 177.239 503.239 175 506 175C508.761 175 511 177.239 511 180ZM486 185C488.761 185 491 182.761 491 180C491 177.239 488.761 175 486 175C483.239 175 481 177.239 481 180C481 182.761 483.239 185 486 185ZM471 180C471 182.761 468.761 185 466 185C463.239 185 461 182.761 461 180C461 177.239 463.239 175 466 175C468.761 175 471 177.239 471 180ZM446 185C448.761 185 451 182.761 451 180C451 177.239 448.761 175 446 175C443.239 175 441 177.239 441 180C441 182.761 443.239 185 446 185ZM431 180C431 182.761 428.761 185 426 185C423.239 185 421 182.761 421 180C421 177.239 423.239 175 426 175C428.761 175 431 177.239 431 180ZM406 185C408.761 185 411 182.761 411 180C411 177.239 408.761 175 406 175C403.239 175 401 177.239 401 180C401 182.761 403.239 185 406 185ZM391 180C391 182.761 388.761 185 386 185C383.239 185 381 182.761 381 180C381 177.239 383.239 175 386 175C388.761 175 391 177.239 391 180ZM366 185C368.761 185 371 182.761 371 180C371 177.239 368.761 175 366 175C363.239 175 361 177.239 361 180C361 182.761 363.239 185 366 185ZM351 180C351 182.761 348.761 185 346 185C343.239 185 341 182.761 341 180C341 177.239 343.239 175 346 175C348.761 175 351 177.239 351 180ZM326 185C328.761 185 331 182.761 331 180C331 177.239 328.761 175 326 175C323.239 175 321 177.239 321 180C321 182.761 323.239 185 326 185ZM311 180C311 182.761 308.761 185 306 185C303.239 185 301 182.761 301 180C301 177.239 303.239 175 306 175C308.761 175 311 177.239 311 180ZM286 185C288.761 185 291 182.761 291 180C291 177.239 288.761 175 286 175C283.239 175 281 177.239 281 180C281 182.761 283.239 185 286 185ZM271 180C271 182.761 268.761 185 266 185C263.239 185 261 182.761 261 180C261 177.239 263.239 175 266 175C268.761 175 271 177.239 271 180ZM246 185C248.761 185 251 182.761 251 180C251 177.239 248.761 175 246 175C243.239 175 241 177.239 241 180C241 182.761 243.239 185 246 185ZM231 180C231 182.761 228.761 185 226 185C223.239 185 221 182.761 221 180C221 177.239 223.239 175 226 175C228.761 175 231 177.239 231 180ZM206 185C208.761 185 211 182.761 211 180C211 177.239 208.761 175 206 175C203.239 175 201 177.239 201 180C201 182.761 203.239 185 206 185ZM551 160C551 162.761 548.761 165 546 165C543.239 165 541 162.761 541 160C541 157.239 543.239 155 546 155C548.761 155 551 157.239 551 160ZM526 165C528.761 165 531 162.761 531 160C531 157.239 528.761 155 526 155C523.239 155 521 157.239 521 160C521 162.761 523.239 165 526 165ZM511 160C511 162.761 508.761 165 506 165C503.239 165 501 162.761 501 160C501 157.239 503.239 155 506 155C508.761 155 511 157.239 511 160ZM486 165C488.761 165 491 162.761 491 160C491 157.239 488.761 155 486 155C483.239 155 481 157.239 481 160C481 162.761 483.239 165 486 165ZM471 160C471 162.761 468.761 165 466 165C463.239 165 461 162.761 461 160C461 157.239 463.239 155 466 155C468.761 155 471 157.239 471 160ZM446 165C448.761 165 451 162.761 451 160C451 157.239 448.761 155 446 155C443.239 155 441 157.239 441 160C441 162.761 443.239 165 446 165ZM431 160C431 162.761 428.761 165 426 165C423.239 165 421 162.761 421 160C421 157.239 423.239 155 426 155C428.761 155 431 157.239 431 160ZM406 165C408.761 165 411 162.761 411 160C411 157.239 408.761 155 406 155C403.239 155 401 157.239 401 160C401 162.761 403.239 165 406 165ZM351 160C351 162.761 348.761 165 346 165C343.239 165 341 162.761 341 160C341 157.239 343.239 155 346 155C348.761 155 351 157.239 351 160ZM326 165C328.761 165 331 162.761 331 160C331 157.239 328.761 155 326 155C323.239 155 321 157.239 321 160C321 162.761 323.239 165 326 165ZM311 160C311 162.761 308.761 165 306 165C303.239 165 301 162.761 301 160C301 157.239 303.239 155 306 155C308.761 155 311 157.239 311 160ZM286 165C288.761 165 291 162.761 291 160C291 157.239 288.761 155 286 155C283.239 155 281 157.239 281 160C281 162.761 283.239 165 286 165ZM271 160C271 162.761 268.761 165 266 165C263.239 165 261 162.761 261 160C261 157.239 263.239 155 266 155C268.761 155 271 157.239 271 160ZM246 165C248.761 165 251 162.761 251 160C251 157.239 248.761 155 246 155C243.239 155 241 157.239 241 160C241 162.761 243.239 165 246 165ZM231 160C231 162.761 228.761 165 226 165C223.239 165 221 162.761 221 160C221 157.239 223.239 155 226 155C228.761 155 231 157.239 231 160ZM206 165C208.761 165 211 162.761 211 160C211 157.239 208.761 155 206 155C203.239 155 201 157.239 201 160C201 162.761 203.239 165 206 165Z" fill="black"/>
</svg>
